<?xml version="1.0" encoding="UTF-8" standalone="no"?> <svg width="43" height="43" viewBox="0 0 43 43" fill="none" xmlns="http://www.w3.org/2000/svg">
<rect x="0.111328" y="0.5" width="42" height="42" rx="21" fill="black"/>
<path d="M30.5613 32C29.9313 32 29.5113 31.58 29.5113 30.95V12.05C29.5113 11.42 29.9313 11 30.5613 11C31.1913 11 31.6113 11.42 31.6113 12.05V30.95C31.6113 31.58 31.1913 32 30.5613 32ZM11.6613 32C11.0313 32 10.6113 31.58 10.6113 30.95V12.05C10.6113 11.42 11.0313 11 11.6613 11C12.2913 11 12.7113 11.42 12.7113 12.05V30.95C12.7113 31.58 12.2913 32 11.6613 32ZM26.3613 27.8C25.9413 27.8 25.6263 27.59 25.4163 27.17L23.7363 23.6H18.4863L16.8063 27.17C16.5963 27.695 15.9663 27.905 15.4413 27.695C14.9163 27.485 14.7063 26.855 14.9163 26.33L19.4313 16.46C19.7463 15.725 19.9563 15.305 20.4813 15.095C20.9013 14.885 21.4263 14.885 21.8463 15.095C22.3713 15.305 22.5813 15.83 22.8963 16.46L27.4113 26.33C27.6213 26.855 27.4113 27.485 26.8863 27.695C26.6763 27.8 26.4663 27.8 26.3613 27.8ZM19.4313 21.5H22.8963L21.1113 17.72L19.4313 21.5Z" fill="white"/>
</svg>
